<svg width="20" height="21" viewBox="0 0 20 21" fill="none" xmlns="http://www.w3.org/2000/svg">
<path d="M10 1.75C5.40502 1.75 1.66669 5.67525 1.66669 10.5C1.66669 15.3248 5.40502 19.25 10 19.25C14.595 19.25 18.3334 15.3248 18.3334 10.5C18.3334 5.67525 14.595 1.75 10 1.75ZM10 17.5C6.32419 17.5 3.33335 14.3596 3.33335 10.5C3.33335 6.64038 6.32419 3.5 10 3.5C13.6759 3.5 16.6667 6.64038 16.6667 10.5C16.6667 14.3596 13.6759 17.5 10 17.5Z" fill="#DEBB7C"/>
<path d="M10.8334 6.125H9.16669V10.8622L11.9109 13.7436L13.0892 12.5064L10.8334 10.1377V6.125Z" fill="#DEBB7C"/>
</svg>
